<svg width="32" height="32" viewBox="0 0 32 32" fill="none" xmlns="http://www.w3.org/2000/svg">
<path d="M16 0C7.17714 0 0 7.17714 0 16C0 24.8229 7.17714 32 16 32C24.8229 32 32 24.8229 32 16C32 7.17714 24.8229 0 16 0ZM16 5.71429C19.1423 5.71429 21.7143 8.28624 21.7143 11.4286C21.7143 14.5709 19.1423 17.1429 16 17.1429C12.8577 17.1429 10.2857 14.5709 10.2857 11.4286C10.2857 8.28624 12.8577 5.71429 16 5.71429ZM11.4286 19.4286H20.5714C23.6918 19.4286 26.2398 21.9561 26.2811 25.0671C23.7702 27.9135 20.1038 29.7143 16 29.7143C11.8962 29.7143 8.22988 27.9133 5.71886 25.0671C5.76018 21.9564 8.30838 19.4286 11.4288 19.4286H11.4286Z" fill="#F6F6F6"/>
</svg>
