<svg width="16" height="30" viewBox="0 0 16 30" fill="none" xmlns="http://www.w3.org/2000/svg">
<path d="M0.560815 29.4221C1.30857 30.1926 2.51648 30.1926 3.26423 29.4221L8 24.5423L12.7358 29.4221C13.4835 30.1926 14.6914 30.1926 15.4392 29.4221C16.1869 28.6516 16.1869 27.407 15.4392 26.6365L9.36129 20.3737C8.61354 19.6032 7.40563 19.6032 6.65788 20.3737L0.579988 26.6365C-0.186938 27.3872 -0.186938 28.6516 0.560815 29.4221ZM15.4392 0.577873C14.6914 -0.192624 13.4835 -0.192624 12.7358 0.577873L8 5.45769L3.26423 0.577873C2.51648 -0.192624 1.30857 -0.192624 0.560815 0.577873C-0.186938 1.34837 -0.186938 2.61278 0.560815 3.38327L6.63871 9.64603C7.38646 10.4165 8.59437 10.4165 9.34212 9.64603L15.42 3.38327C16.1869 2.61278 16.1869 1.34837 15.4392 0.577873Z" fill="black"/>
</svg>
