<svg width="22" height="24" viewBox="0 0 22 24" fill="none" xmlns="http://www.w3.org/2000/svg">
<path d="M19.6154 2.28139H18.5805V2.03601C18.5805 0.907533 17.69 0 16.5828 0C15.4757 0 14.5852 0.907576 14.5852 2.03601V2.28139H13.0208V2.03601C13.0208 0.907533 12.1303 0 11.0231 0C9.91589 0 9.02544 0.907576 9.02544 2.03601V2.28139H7.46108V2.03601C7.46108 0.907533 6.57059 0 5.4634 0C4.35621 0 3.46572 0.907576 3.46572 2.03601V2.28139H2.43087C1.08308 2.28139 0 3.3852 0 4.7589V20.8262C0 22.1999 1.08304 23.3037 2.43087 23.3037H19.5676C20.9154 23.3037 21.9985 22.1999 21.9985 20.8262V4.78343C22.0466 3.40978 20.9632 2.28139 19.6154 2.28139ZM15.8607 2.06065C15.8607 1.64366 16.1977 1.3247 16.5828 1.3247C16.968 1.3247 17.3049 1.66812 17.3049 2.06065V3.82683C17.3049 4.24382 16.968 4.56278 16.5828 4.56278C16.1977 4.56278 15.8607 4.21937 15.8607 3.82683V2.06065ZM10.325 2.06065C10.325 1.64366 10.662 1.3247 11.0471 1.3247C11.4562 1.3247 11.7692 1.66812 11.7692 2.06065V3.82683C11.7692 4.24382 11.4323 4.56278 11.0471 4.56278C10.638 4.56278 10.325 4.21937 10.325 3.82683V2.06065ZM4.7652 2.06065C4.7652 1.64366 5.10215 1.3247 5.4873 1.3247C5.89644 1.3247 6.2094 1.66812 6.2094 2.06065V3.82683C6.2094 4.24382 5.87245 4.56278 5.4873 4.56278C5.07816 4.56278 4.7652 4.21937 4.7652 3.82683V2.06065ZM20.7948 20.8508C20.7948 21.5132 20.2653 22.0529 19.6154 22.0529L2.47866 22.0527C1.82877 22.0527 1.29926 21.513 1.29926 20.8507V7.87416H20.7706V20.8507L20.7948 20.8508Z" fill="#F6F6F6"/>
<path d="M11.0471 20.0657C13.7909 20.0657 16.0293 17.7845 16.0293 14.9879C16.0293 12.1916 13.7908 9.91016 11.0471 9.91016C8.30339 9.91016 6.06494 12.1914 6.06494 14.9879C6.06494 17.7844 8.30339 20.0657 11.0471 20.0657ZM11.0471 11.2103C13.093 11.2103 14.7536 12.9029 14.7536 14.9878C14.7536 17.073 13.093 18.7656 11.0471 18.7656C9.00125 18.7656 7.34065 17.073 7.34065 14.988C7.34065 12.9028 9.00125 11.2103 11.0471 11.2103Z" fill="#F6F6F6"/>
<path d="M12.2023 16.4607C12.2985 16.5343 12.4189 16.5588 12.5392 16.5588C12.7558 16.5588 12.9724 16.4361 13.0928 16.2398C13.2613 15.9455 13.1649 15.5285 12.8762 15.3567L11.6968 14.6208V13.0508C11.6968 12.7074 11.408 12.4131 11.071 12.4131C10.7341 12.4131 10.4453 12.7074 10.4453 13.0508V14.9886C10.4453 15.2094 10.5657 15.4301 10.7583 15.5283L12.2023 16.4607Z" fill="#F6F6F6"/>
</svg>
