<svg width="24" height="22" viewBox="0 0 24 22" fill="none" xmlns="http://www.w3.org/2000/svg">
<path d="M5.13329 11.7337H3.66662C2.35659 11.7337 1.14613 11.0349 0.491198 9.9004C-0.163733 8.76587 -0.163733 7.36826 0.491198 6.23373C1.14613 5.0992 2.35663 4.40039 3.66662 4.40039H5.13329C5.32775 4.40039 5.51436 4.47765 5.65186 4.61515C5.78936 4.75265 5.86662 4.93926 5.86662 5.13373V11.0004C5.86662 11.1949 5.78936 11.3815 5.65186 11.519C5.51436 11.6565 5.32775 11.7337 5.13329 11.7337ZM3.66662 5.86706C2.88057 5.86706 2.15427 6.28644 1.76142 6.96706C1.3684 7.64768 1.3684 8.48645 1.76142 9.16707C2.15427 9.84768 2.88057 10.2671 3.66662 10.2671H4.39995V5.86706H3.66662Z" fill="#F6F6F6"/>
<path d="M14.6666 14.6666C14.5936 14.6666 14.5209 14.6557 14.451 14.634L4.91766 11.7007C4.76772 11.6547 4.6366 11.5617 4.5433 11.4357C4.45015 11.3095 4.3999 11.1568 4.3999 11V5.13329C4.3999 4.97647 4.45015 4.82375 4.5433 4.69756C4.6366 4.57152 4.76772 4.47854 4.91766 4.43255L14.451 1.49921C14.6735 1.43079 14.9151 1.47204 15.1023 1.61019C15.2894 1.74851 15.3999 1.96736 15.3999 2.19996V13.9333C15.3999 14.1278 15.3227 14.3144 15.1852 14.4519C15.0477 14.5894 14.8611 14.6666 14.6666 14.6666L14.6666 14.6666ZM5.86657 10.4581L13.9333 12.9403V3.19283L5.86657 5.67502V10.4581Z" fill="#F6F6F6"/>
<path d="M16.1331 16.1333C15.5499 16.1327 14.9905 15.9007 14.5782 15.4882C14.1657 15.0759 13.9338 14.5165 13.9331 13.9333V2.19997C13.9331 1.41392 14.3525 0.687624 15.0331 0.294766C15.7137 -0.0982553 16.5525 -0.0982553 17.2331 0.294766C17.9137 0.687624 18.3331 1.41392 18.3331 2.19997V13.9333C18.3325 14.5166 18.1005 15.0759 17.688 15.4882C17.2757 15.9007 16.7163 16.1327 16.1331 16.1333ZM16.1331 1.46663C15.9386 1.46696 15.7524 1.54423 15.6149 1.68172C15.4774 1.81922 15.4001 2.00551 15.3998 2.19996V13.9333C15.3998 14.1954 15.5396 14.4375 15.7665 14.5684C15.9933 14.6994 16.2729 14.6994 16.4998 14.5684C16.7267 14.4375 16.8665 14.1954 16.8665 13.9333V2.19996C16.8661 2.0055 16.7889 1.81922 16.6514 1.68172C16.5139 1.54423 16.3276 1.46696 16.1331 1.46663H16.1331Z" fill="#F6F6F6"/>
<path d="M22.7331 8.79968H20.5331C20.2711 8.79968 20.029 8.65989 19.898 8.43301C19.7671 8.20613 19.7671 7.92655 19.898 7.69968C20.029 7.4728 20.2711 7.33301 20.5331 7.33301H22.7331C22.9952 7.33301 23.2373 7.4728 23.3682 7.69968C23.4992 7.92655 23.4992 8.20614 23.3682 8.43301C23.2373 8.65988 22.9952 8.79968 22.7331 8.79968Z" fill="#F6F6F6"/>
<path d="M19.5269 5.51268C19.3162 5.51268 19.1159 5.42215 18.9766 5.26419C18.8373 5.10623 18.7728 4.89589 18.7993 4.68704C18.8258 4.47817 18.9407 4.29058 19.1151 4.17241L20.9373 2.93948H20.9374C21.1543 2.79265 21.4332 2.77268 21.6688 2.88726C21.9045 3.00169 22.0611 3.23314 22.08 3.49455C22.0986 3.7558 21.9765 4.00721 21.7595 4.15422L19.9373 5.38664C19.8161 5.46881 19.6732 5.51268 19.5269 5.51268H19.5269Z" fill="#F6F6F6"/>
<path d="M21.3473 13.3192C21.2008 13.3193 21.0577 13.2753 20.9366 13.1931L19.1144 11.9602C18.952 11.8517 18.8397 11.6829 18.8022 11.4914C18.7647 11.2997 18.8052 11.1011 18.9145 10.9394C19.024 10.7777 19.1934 10.6664 19.3853 10.63C19.577 10.5937 19.7754 10.6353 19.9364 10.7456L21.7586 11.9783L21.7588 11.9785C21.9333 12.0965 22.0485 12.2841 22.0752 12.4931C22.1019 12.7022 22.0372 12.9127 21.8977 13.0708C21.7584 13.2289 21.5578 13.3193 21.3469 13.3191L21.3473 13.3192Z" fill="#F6F6F6"/>
<path d="M3.66644 5.86692C3.47198 5.86692 3.28537 5.78966 3.14787 5.65216C3.01037 5.51466 2.93311 5.32805 2.93311 5.13359V3.66692C2.93311 3.40485 3.0729 3.16276 3.29977 3.03181C3.52665 2.90086 3.80623 2.90086 4.03311 3.03181C4.25998 3.16276 4.39977 3.40486 4.39977 3.66692V5.13359C4.39977 5.32805 4.32251 5.51466 4.18501 5.65216C4.04751 5.78966 3.8609 5.86692 3.66644 5.86692Z" fill="#F6F6F6"/>
<path d="M6.6002 15.3995H3.66686C3.27794 15.3992 2.9052 15.2445 2.63022 14.9695C2.35524 14.6944 2.20053 14.3217 2.2002 13.9328V10.9042C2.2002 10.6422 2.33999 10.4001 2.56686 10.2691C2.79374 10.1382 3.07332 10.1382 3.3002 10.2691C3.52707 10.4001 3.66686 10.6422 3.66686 10.9042V13.9328H6.6002V11.6742C6.6002 11.4122 6.73999 11.1701 6.96687 11.0391C7.19375 10.9082 7.47333 10.9082 7.7002 11.0391C7.92708 11.1701 8.06687 11.4122 8.06687 11.6742V13.9328C8.06654 14.3217 7.91186 14.6945 7.63684 14.9695C7.36183 15.2444 6.98912 15.3991 6.6002 15.3995Z" fill="#F6F6F6"/>
<path d="M5.13311 22.0003C4.54988 21.9996 3.99053 21.7677 3.57823 21.3551C3.16573 20.9428 2.93378 20.3835 2.93311 19.8003V14.6669C2.93311 14.4725 3.01037 14.2859 3.14787 14.1484C3.28537 14.0109 3.47198 13.9336 3.66644 13.9336H6.59978C6.79424 13.9336 6.98085 14.0109 7.11835 14.1484C7.25585 14.2859 7.33311 14.4725 7.33311 14.6669V19.8003C7.33246 20.3835 7.10051 20.9428 6.68799 21.3551C6.27565 21.7677 5.7163 21.9996 5.13311 22.0003ZM4.39977 15.4003V19.8003C4.39977 20.0623 4.53956 20.3044 4.76644 20.4354C4.99332 20.5663 5.2729 20.5663 5.49978 20.4354C5.72665 20.3044 5.86644 20.0623 5.86644 19.8003V15.4003H4.39977Z" fill="#F6F6F6"/>
</svg>
