<svg width="24" height="22" viewBox="0 0 24 22" fill="none" xmlns="http://www.w3.org/2000/svg">
<path d="M23.1367 5.75974L11.9709 0.0599042C11.8158 -0.019968 11.6337 -0.019968 11.478 0.0599042L0.312172 5.75974C0.121315 5.85706 0 6.05848 0 6.27911C0 6.49973 0.120569 6.70114 0.312172 6.79847L2.78939 8.06301V17.5301C2.78939 17.6721 2.83968 17.8087 2.93015 17.9146C5.15388 20.5107 8.34868 22 11.6942 22C15.0808 22 18.2995 20.4819 20.5233 17.8353C20.6121 17.7298 20.6607 17.5951 20.6607 17.4549L20.6603 8.06221L23.1369 6.79822C23.3278 6.7009 23.4491 6.49948 23.4491 6.27886C23.4489 6.05844 23.3278 5.85682 23.1369 5.7595L23.1367 5.75974ZM19.5436 17.2349C17.5376 19.53 14.6892 20.8421 11.6936 20.8421C8.7369 20.8421 5.90991 19.5562 3.9053 17.3066V8.63502L11.4754 12.4969C11.4759 12.4969 11.4765 12.4969 11.477 12.4975H11.4776C11.5552 12.5374 11.6395 12.5572 11.7238 12.5572C11.8081 12.5572 11.8924 12.5374 11.97 12.4975L15.8647 10.5098L16.4978 10.1867V12.9271C15.537 13.183 14.8229 14.0718 14.8229 15.1348C14.8229 15.4545 15.073 15.7138 15.3813 15.7138C15.6895 15.7138 15.9396 15.4545 15.9396 15.1348C15.9396 14.718 16.1658 14.3572 16.498 14.1608V15.657C16.498 15.9767 16.7481 16.2361 17.0563 16.2361C17.3646 16.2361 17.6147 15.9767 17.6147 15.657V14.1608C17.9463 14.357 18.1725 14.7178 18.1725 15.1348C18.1725 15.4545 18.4226 15.7138 18.7309 15.7138C19.0391 15.7138 19.2892 15.4545 19.2892 15.1348C19.2892 14.071 18.5751 13.183 17.6149 12.9271V9.61693L19.5433 8.63383L19.5429 17.235L19.5436 17.2349ZM17.0686 8.60545L11.9894 5.76942C11.7174 5.61724 11.3798 5.72309 11.2334 6.00458C11.087 6.28606 11.1887 6.63734 11.4602 6.78856L15.8382 9.23316L15.6081 9.35064L11.7224 11.3319L1.82282 6.27923L11.7243 1.22506L21.6263 6.27923L17.0686 8.60545Z" fill="#F6F6F6"/>
</svg>
