<svg width="19" height="25" viewBox="0 0 19 25" fill="none" xmlns="http://www.w3.org/2000/svg">
<path d="M0 21.25V19.375H2.49375V9.8125C2.49375 8.0625 2.98359 6.50521 3.96328 5.14062C4.94297 3.77604 6.23438 2.91667 7.8375 2.5625V1.65625C7.8375 1.17708 8.00078 0.78125 8.32734 0.46875C8.65391 0.15625 9.04479 0 9.5 0C9.95521 0 10.3461 0.15625 10.6727 0.46875C10.9992 0.78125 11.1625 1.17708 11.1625 1.65625V2.5625C12.7656 2.91667 14.062 3.77604 15.0516 5.14062C16.0411 6.50521 16.5359 8.0625 16.5359 9.8125V19.375H19V21.25H0ZM9.5 25C8.86667 25 8.3125 24.7552 7.8375 24.2656C7.3625 23.776 7.125 23.1875 7.125 22.5H11.875C11.875 23.1875 11.6424 23.776 11.1773 24.2656C10.7122 24.7552 10.1531 25 9.5 25ZM4.275 19.375H14.7547V9.8125C14.7547 8.27083 14.25 6.95833 13.2406 5.875C12.2312 4.79167 10.9943 4.25 9.52969 4.25C8.0651 4.25 6.82318 4.79167 5.80391 5.875C4.78464 6.95833 4.275 8.27083 4.275 9.8125V19.375Z" fill="#F6F6F6"/>
</svg>
