<svg width="16" height="30" viewBox="0 0 16 30" fill="none" xmlns="http://www.w3.org/2000/svg">
<path d="M8 4.22898L12.7166 8.52342C13.4643 9.20425 14.6723 9.20425 15.42 8.52342C16.1678 7.8426 16.1678 6.7428 15.42 6.06197L9.34212 0.51062C8.59437 -0.170207 7.38646 -0.170207 6.63871 0.51062L0.560815 6.06197C-0.186938 6.7428 -0.186938 7.8426 0.560815 8.52342C1.30857 9.20425 2.51648 9.20425 3.26423 8.52342L8 4.22898ZM8 25.771L3.2834 21.4766C2.53565 20.7958 1.32774 20.7958 0.579988 21.4766C-0.167765 22.1574 -0.167765 23.2572 0.579988 23.938L6.65788 29.4894C7.40563 30.1702 8.61354 30.1702 9.36129 29.4894L15.4392 23.9555C16.1869 23.2747 16.1869 22.1749 15.4392 21.494C14.6914 20.8132 13.4835 20.8132 12.7358 21.494L8 25.771Z" fill="black"/>
</svg>
